<?xml version="1.0" encoding="UTF-8"?>
<svg width="400px" height="300px" viewBox="0 0 400 300" version="1.1" xmlns="http://www.w3.org/2000/svg" xmlns:xlink="http://www.w3.org/1999/xlink">
    <!-- Generator: Sketch 44.1 (41455) - http://www.bohemiancoding.com/sketch -->
    <title>img-c5</title>
    <desc>Created with Sketch.</desc>
    <defs></defs>
    <g id="12-默认图示" stroke="none" stroke-width="1" fill="none" fill-rule="evenodd">
        <g id="img-c5">
            <g id="Group" transform="translate(75.000000, 60.000000)" fill="#C2C2C5">
                <polygon id="Rectangle-6" points="0 30 0 -2.53765263e-15 250 -2.53765263e-15 250 30"></polygon>
            </g>
            <g id="Group" transform="translate(100.000000, 98.000000)" fill="#A7A8AC" opacity="0.600000024">
                <polygon id="Rectangle-6" points="0 30 0 -2.53765263e-15 200 -2.53765263e-15 200 30"></polygon>
            </g>
            <g id="Group" transform="translate(125.000000, 135.000000)" fill="#A7A8AC" opacity="0.400000006">
                <polygon id="Rectangle-6" points="0 30 0 -2.53765263e-15 150 -2.53765263e-15 150 30"></polygon>
            </g>
            <g id="Group" transform="translate(150.000000, 173.000000)" fill="#A7A8AC" opacity="0.300000012">
                <polygon id="Rectangle-6" points="0 30 0 -2.53765263e-15 100 -2.53765263e-15 100 30"></polygon>
            </g>
            <g id="Group" transform="translate(175.000000, 210.000000)" fill="#A7A8AC" opacity="0.100000012">
                <polygon id="Rectangle-6" points="0 30 0 -2.53765263e-15 50 -2.53765263e-15 50 30"></polygon>
            </g>
        </g>
    </g>
</svg>