<?xml version="1.0" encoding="UTF-8" standalone="no"?>
<svg width="400px" height="300px" viewBox="0 0 400 300" version="1.1" xmlns="http://www.w3.org/2000/svg" xmlns:xlink="http://www.w3.org/1999/xlink">
    <defs></defs>
    <g id="V3.0" stroke="none" stroke-width="1" fill="none" fill-rule="evenodd">
        <g id="img-3" fill="#A7A8AC">
            <path d="M126,144.340376 L126,111.586217 L144.45703,111.586217 L144.45703,144.340376 L126,144.340376 Z M152.07422,144.340376 L152.07422,78.5396082 L170.53125,78.5396082 L170.53125,144.340376 L152.07422,144.340376 Z M177.85547,102.227885 L177.85547,97.5487197 L196.01953,97.5487197 L196.01953,102.227885 L177.85547,102.227885 Z M177.85547,93.1620032 L177.85547,88.7752817 L196.01953,88.7752817 L196.01953,93.1620032 L177.85547,93.1620032 Z M177.85547,110.708869 L177.85547,106.614602 L196.01953,106.614602 L196.01953,110.708869 L177.85547,110.708869 Z M177.85547,119.189858 L177.85547,115.095591 L196.01953,115.095591 L196.01953,119.189858 L177.85547,119.189858 Z M177.85547,127.378398 L177.85547,123.284131 L196.01953,123.284131 L196.01953,127.378398 L177.85547,127.378398 Z M177.85547,136.151836 L177.85547,131.765115 L196.01953,131.765115 L196.01953,136.151836 L177.85547,136.151836 Z M177.85547,144.340376 L177.85547,140.831002 L196.01953,140.831002 L196.01953,144.340376 L177.85547,144.340376 Z M160.277345,166.273963 C168.67578,166.273963 175.853515,169.149701 181.810545,174.901177 C187.76758,180.652647 190.746095,187.720139 190.746095,196.103647 C190.746095,204.487149 187.816405,211.554641 181.95703,217.306111 C176.097655,223.057587 168.96875,225.933325 160.57031,225.933325 C152.171875,225.933325 145.140625,223.057587 139.47656,217.306111 C133.8125,211.554641 130.98047,204.487149 130.98047,196.103647 L160.277345,196.103647 L160.277345,166.273963 Z M152.36719,172.12292 C144.75,174.462503 139.671875,179.726567 137.13281,187.915102 L152.36719,187.915102 L152.36719,172.12292 Z M156.46875,166.273963 L156.46875,192.009374 L130.98047,192.009374 C131.95703,185.380556 134.78906,179.629081 139.47656,174.754952 C144.16406,169.880819 149.828125,167.053824 156.46875,166.273963 Z M212.13281,196.396091 L216.527345,190.547134 L216.527345,203.414839 L212.13281,204.584631 L212.13281,196.396091 Z M220.628905,184.698177 L225.02344,177.679428 L225.02344,200.197914 L220.628905,201.952599 L220.628905,184.698177 Z M229.125,172.415369 L233.51953,166.273963 L233.51953,197.273433 L229.125,199.320572 L229.125,172.415369 Z M237.328125,170.075787 L241.722655,173.877605 L241.722655,198.443229 L237.328125,196.103647 L237.328125,170.075787 Z M246.11719,176.509637 L250.80469,180.31146 L250.80469,203.707288 L246.11719,201.075256 L246.11719,176.509637 Z M254.90625,184.405733 L259.30078,187.037759 L259.30078,209.263796 L254.90625,206.631764 L254.90625,184.405733 Z M263.402345,181.773701 L267.796875,175.339845 L267.796875,202.245048 L263.402345,205.461978 L263.402345,181.773701 Z M271.60547,170.075787 L276,163.641931 L276,194.93385 L271.60547,198.443229 L271.60547,170.075787 Z M259.30078,221.254159 L276,209.263796 L276,225.933325 L212.13281,225.933325 L212.13281,221.254159 L237.328125,209.263796 L259.30078,221.254159 Z" id="Shape" fill-rule="nonzero" opacity="0.699999988"></path>
            <path d="M235.57031,97.5487197 C242.21094,97.5487197 247.82617,99.8395594 252.416015,104.421244 C257.00586,109.002928 259.30078,114.608174 259.30078,121.236997 C259.30078,127.86581 257.00586,133.471061 252.416015,138.052745 C247.82617,142.634429 242.21094,144.925269 235.57031,144.925269 C228.92969,144.925269 223.36328,142.634429 218.871095,138.052745 C214.378905,133.471061 212.13281,127.86581 212.13281,121.236997 C212.13281,114.608174 214.378905,109.002928 218.871095,104.421244 C223.36328,99.8395594 228.92969,97.5487197 235.57031,97.5487197 Z" id="Path" opacity="0.300000012"></path>
            <path d="M265.453125,76.4924745 C268.38281,76.4924745 270.873045,77.5160414 272.92383,79.5631751 C274.97461,81.6103088 276,84.0961161 276,87.0205971 C276,89.9450731 274.97461,92.4308805 272.92383,94.4780142 C270.873045,96.5251529 268.38281,97.5487197 265.453125,97.5487197 C262.52344,97.5487197 260.033205,96.5251529 257.98242,94.4780142 C255.93164,92.4308805 254.90625,89.9450731 254.90625,87.0205971 C254.90625,84.0961161 255.93164,81.6103088 257.98242,79.5631751 C260.033205,77.5160414 262.52344,76.4924745 265.453125,76.4924745 Z" id="Path" opacity="0.300000012"></path>
        </g>
    </g>
</svg>