<?xml version="1.0" encoding="UTF-8"?>
<svg width="400px" height="300px" viewBox="0 0 400 300" version="1.1" xmlns="http://www.w3.org/2000/svg" xmlns:xlink="http://www.w3.org/1999/xlink">
    <!-- Generator: Sketch 50.2 (55047) - http://www.bohemiancoding.com/sketch -->
    <title>img-11</title>
    <desc>Created with Sketch.</desc>
    <defs>
        <path d="M3.91756129,19.6418219 L0,30.7598344 L0,38.1718427 L3.91756129,41.8778468 L15.6702452,38.1718427 L19.5878065,34.4658385 L27.4229291,34.4658385 L35.2580517,41.8778468 L39.1756129,45.5838509 L43.0931742,52.9958592 L43.0931742,60.4078675 L54.8458581,75.2318841 L66.598542,86.3498965 L74.4336646,86.3498965 L82.2687872,93.7619048 L86.1863485,93.7619048 L82.2687872,78.9378882 L90.1039098,78.9378882 L101.856594,82.6438923 L105.774155,82.6438923 L90.1039098,71.5258799 L86.1863485,71.5258799 L82.2687872,71.5258799 L74.4336646,71.5258799 L90.1039098,64.1138716 L94.0214711,60.4078675 L97.9390324,56.7018634 L101.856594,52.9958592 L105.774155,49.2898551 L113.609278,49.2898551 C113.609278,49.2898551 125.361961,45.5838509 121.4444,45.5838509 C117.526839,45.5838509 113.609278,38.1718427 113.609278,38.1718427 L105.774155,34.4658385 L97.9390324,34.4658385 L94.0214711,30.7598344 L86.1863485,34.4658385 L82.2687872,34.4658385 L78.3512259,34.4658385 C78.3512259,34.4658385 74.4336646,30.7598344 78.3512259,30.7598344 C82.2687872,30.7598344 90.1039098,27.0538302 90.1039098,27.0538302 L97.9390324,27.0538302 L105.774155,30.7598344 L109.691716,27.0538302 C109.691716,27.0538302 109.691716,19.6418219 105.774155,19.6418219 L90.1039098,19.6418219 L86.1863485,19.6418219 C86.1863485,19.6418219 90.1039098,12.2298137 86.1863485,12.2298137 C82.2687872,12.2298137 78.3512259,15.9358178 78.3512259,15.9358178 L70.5161033,8.52380952 L66.598542,8.52380952 L58.7634194,12.2298137 L54.8458581,12.2298137 C50.9282968,12.2298137 47.0107355,8.52380952 47.0107355,12.2298137 C47.0107355,15.9358178 43.0931742,15.9358178 43.0931742,15.9358178 C43.0931742,15.9358178 35.2580517,19.6418219 39.1756129,19.6418219 C43.0931742,19.6418219 43.0931742,19.6418219 31.3404904,19.6418219 L15.6702452,19.6418219 L11.7526839,19.6418219 L3.91756129,19.6418219 Z" id="path-1"></path>
        <path d="M221.279846,56.0136054 L209.560976,59.9710884 L209.560976,67.8860544 L213.467266,75.8010204 L213.467266,83.7159864 L213.467266,87.6734694 L221.279846,91.6309524 L225.186136,95.5884354 L229.092426,91.6309524 L232.998716,87.6734694 L236.905006,83.7159864 C236.905006,83.7159864 244.689244,79.7728603 236.947404,79.7585425 C235.244747,79.7585034 233.584488,78.7982779 231.732132,77.8238033 C229.823973,76.8199721 227.71197,75.8010204 225.186136,75.8010204 C224.152833,75.9421341 225.186136,79.7585034 225.186136,79.7585034 L225.186136,71.8435374 L229.092426,71.8435374 L244.717587,83.7159864 C244.717587,83.7159864 248.623877,83.7159864 248.623877,87.6734694 C248.623877,91.6309524 252.530167,95.5884354 252.530167,95.5884354 C252.530167,95.5884354 255.31635,93.6202849 256.436457,95.5884354 C257.199078,96.9284439 256.436457,101.900377 256.436457,103.503401 C256.436457,107.460884 260.342747,107.460884 260.342747,107.460884 L264.249037,103.503401 L260.342747,99.5459184 L256.436457,91.6309524 C256.436457,91.6309524 252.530167,87.6734694 256.436457,87.6734694 C260.342747,87.6734694 260.342747,83.7159864 260.342747,83.7159864 L264.249037,83.7159864 L268.155327,83.7159864 L268.155327,91.6309524 L272.061617,99.5459184 L275.967908,103.503401 L275.967908,111.418367 L283.780488,119.333333 L283.780488,111.418367 L279.874198,107.460884 L283.780488,103.503401 L279.874198,95.5884354 L287.686778,99.5459184 L287.686778,91.6309524 L287.686778,87.6734694 L291.593068,83.7159864 L295.499358,79.7585034 L303.311938,79.7585034 L299.405648,71.8435374 L299.405648,63.9285714 L299.405648,59.9710884 L307.218228,63.9285714 L311.124519,56.0136054 L315.030809,52.0561224 L318.937099,48.0986395 L322.843389,48.0986395 L322.843389,44.1411565 L318.937099,40.1836735 L318.937099,32.2687075 L330.655969,32.2687075 C330.655969,32.2687075 334.562259,36.2261905 334.562259,36.2261905 C334.562259,36.2261905 338.468549,36.2261905 334.562259,40.1836735 L330.655969,44.1411565 L334.562259,48.0986395 L342.37484,44.1411565 L342.37484,40.1836735 L346.28113,36.2261905 L350.18742,36.2261905 L358,28.3112245 L358,20.3962585 L346.28113,20.3962585 L330.655969,20.3962585 L326.749679,16.4387755 C326.749679,16.4387755 326.749679,16.4387755 322.843389,16.4387755 L318.937099,16.4387755 L315.030809,20.3962585 L307.218228,20.3962585 L303.311938,16.4387755 L295.499358,16.4387755 L287.686778,12.4812925 L279.874198,8.52380952 L272.061617,16.4387755 C272.061617,16.4387755 272.061617,12.4812925 268.155327,12.4812925 L260.342747,12.4812925 L260.342747,16.4387755 L256.436457,16.4387755 L244.717587,16.4387755 L244.717587,20.3962585 C244.717587,20.3962585 244.717587,20.3962585 240.811297,20.3962585 C236.905006,20.3962585 236.905006,12.4812925 236.905006,12.4812925 C236.905006,12.4812925 232.998716,8.52380952 232.998716,12.4812925 C232.998716,16.4387755 229.092426,20.3962585 229.092426,20.3962585 L229.092426,24.3537415 L229.092426,32.2687075 L232.998716,40.1836735 L232.998716,48.0986395 L229.092426,56.0136054 L225.186136,52.0561224 L229.092426,63.9285714 L221.279846,56.0136054 Z" id="path-2"></path>
    </defs>
    <g id="img-11" stroke="none" stroke-width="1" fill="none" fill-rule="evenodd">
        <g id="Group-7" transform="translate(21.000000, 61.000000)">
            <g id="Path-3734" opacity="0.800000012" fill="#A7A8AC">
                <use xlink:href="#path-1"></use>
                <use xlink:href="#path-1"></use>
            </g>
            <path d="M100.123577,6.81904762 L96.0487805,13.6380952 L104.198374,13.6380952 L108.273171,13.6380952 L112.347967,17.047619 L112.347967,23.8666667 L116.422764,27.2761905 L116.422764,30.6857143 L120.497561,34.0952381 L124.572358,30.6857143 C124.572358,30.6857143 128.647154,30.6857143 132.721951,27.2761905 C136.796748,23.8666667 149.021138,17.047619 149.021138,17.047619 L149.021138,13.6380952 L157.170732,6.81904762 L144.946341,6.81904762 L136.796748,3.40952381 L132.721951,3.40952381 L124.572358,0 L120.497561,3.40952381 L108.273171,6.81904762 L100.123577,6.81904762 Z" id="Path-3735" fill="#CCCCCC" opacity="0.400000006"></path>
            <path d="M91.3470919,93.7619048 L91.3470919,101.173913 L91.3470919,112.291925 L87.3170732,115.99793 L95.3771107,127.115942 L99.4071295,134.52795 L99.4071295,141.939959 L99.4071295,156.763975 L95.3771107,167.881988 L103.437148,179 L103.437148,167.881988 L103.437148,164.175983 L111.497186,156.763975 L115.527205,153.057971 L119.557223,145.645963 L127.617261,138.233954 L131.64728,134.52795 L135.677298,130.821946 C135.677298,130.821946 131.64728,130.821946 131.64728,127.115942 C131.64728,123.409938 135.677298,119.703934 135.677298,119.703934 L139.707317,115.99793 L131.64728,112.291925 L123.587242,112.291925 L119.557223,104.879917 L119.557223,101.173913 L111.497186,101.173913 L103.437148,97.4679089 L99.4071295,93.7619048 L95.3771107,97.4679089 L91.3470919,93.7619048 Z" id="Path-3736" fill="#CCCCCC" opacity="0.400000006"></path>
            <polygon id="Path-3737" fill="#CCCCCC" points="148.439024 29.8333333 157.170732 29.8333333 154.260163 25.5714286 148.439024 25.5714286"></polygon>
            <path d="M164.932249,36.7179487 L157.170732,44.5860806 L164.932249,48.5201465 L161.051491,56.3882784 L157.170732,56.3882784 L161.051491,68.1904762 L164.932249,64.2564103 L168.813008,56.3882784 L176.574526,56.3882784 L184.336043,60.3223443 L188.216802,64.2564103 L192.097561,64.2564103 L195.97832,64.2564103 L199.859079,64.2564103 L211.501355,56.3882784 L199.859079,56.3882784 L195.97832,52.4542125 L199.859079,52.4542125 L203.739837,52.4542125 L207.620596,52.4542125 L215.382114,52.4542125 L219.262873,48.5201465 L223.143631,56.3882784 L227.02439,52.4542125 L227.02439,40.6520147 L223.143631,36.7179487 L223.143631,28.8498168 L215.382114,24.9157509 L219.262873,17.047619 L207.620596,24.9157509 L203.739837,20.981685 L199.859079,20.981685 L192.097561,20.981685 L188.216802,20.981685 L180.455285,24.9157509 L176.574526,28.8498168 L184.336043,36.7179487 L180.455285,40.6520147 L172.693767,44.5860806 L168.813008,44.5860806 L168.813008,40.6520147 L164.932249,36.7179487 Z" id="Path-3738" fill="#CCCCCC" opacity="0.400000006"></path>
            <path d="M176.574526,63.5734127 L172.693767,67.4801587 L164.932249,71.3869048 L161.051491,75.2936508 L157.170732,83.1071429 L157.170732,90.9206349 L161.051491,94.827381 L164.932249,102.640873 L168.813008,102.640873 L176.574526,102.640873 L180.455285,102.640873 L184.336043,102.640873 C184.336043,102.640873 188.216802,98.734127 188.216802,102.640873 L188.216802,110.454365 L192.097561,114.361111 L192.097561,122.174603 L188.216802,126.081349 L184.336043,129.988095 C184.336043,129.988095 188.216802,129.988095 188.216802,133.894841 C188.216802,137.801587 192.097561,145.615079 192.097561,145.615079 L199.859079,153.428571 L207.620596,149.521825 L211.501355,137.801587 L215.382114,129.988095 L219.262873,126.081349 L219.262873,122.174603 L215.382114,122.174603 L215.382114,114.361111 C215.382114,114.361111 219.262873,102.640873 223.143631,102.640873 C227.02439,102.640873 227.02439,94.827381 227.02439,94.827381 L223.143631,94.827381 L219.262873,87.0138889 L211.501355,87.0138889 L215.382114,79.2003968 L211.501355,75.2936508 L211.501355,67.4801587 L207.620596,67.4801587 L203.739837,71.3869048 L199.859079,67.4801587 L195.97832,71.3869048 L192.097561,67.4801587 L188.216802,63.5734127 L184.336043,59.6666667 L184.336043,63.5734127 L176.574526,63.5734127 Z" id="Path-3739" fill="#CCCCCC" opacity="0.400000006"></path>
            <path d="M224.113821,119.333333 L221.203252,122.742857 L218.292683,129.561905 L218.292683,136.380952 L221.203252,129.561905 L224.113821,126.152381 L227.02439,122.742857 L224.113821,119.333333 Z" id="Path-3740" fill="#CCCCCC"></path>
            <g id="Path-3741" opacity="0.800000012" fill="#A7A8AC">
                <use xlink:href="#path-2"></use>
                <use xlink:href="#path-2"></use>
            </g>
            <path d="M314.341463,67.3380952 L305.609756,71.1738095 L305.609756,75.0095238 L309.97561,75.0095238 C309.97561,75.0095238 314.341463,78.8452381 314.341463,75.0095238 C314.341463,71.1738095 318.707317,71.1738095 318.707317,71.1738095 L323.073171,67.3380952 L327.439024,63.502381 L331.804878,59.6666667 L323.073171,59.6666667 L318.707317,59.6666667 L318.707317,63.502381 L314.341463,67.3380952 Z" id="Path-3742" fill="#CCCCCC"></path>
            <path d="M296.199803,85.2380952 L294.551269,90.8590064 L300.200783,94.2514068 L297.006229,94.8911682 L303.456467,96.2602627 L300.467478,100.30141 L298.071871,103.263483 L304.921619,112.260928 L310.713131,107.28243 L314.341463,110.956486 C314.341463,110.956486 310.713131,114.630542 310.713131,114.630542 C310.713131,114.630542 314.341463,121.978654 310.713131,118.304598 C307.084799,114.630542 305.78884,107.28243 305.78884,107.28243 L300.200783,108.539332 L297.006229,112.934789 C297.006229,112.934789 299.828135,118.304598 299.828135,118.304598 L296.199803,118.304598 L299.545336,114.349112 C299.545336,114.349112 296.254544,111.281514 296.199803,110.956486 C296.145063,110.631458 293.728357,111.346227 293.728357,111.346227 L290.8806,112.934789 L288.943139,118.304598 L288.146341,110.244727 L291.437175,109.436543 L295.830415,106.980819 L295.328596,104.186482 L288.943139,99.9343186 L290.8806,99.9343186 L291.153711,100.930422 L290.385038,103.608374 L292.601463,99.9343186 C292.601463,99.9343186 291.257574,99.9343186 292.904984,99.9343186 L296.199803,99.9343186 L296.199803,96.2602627 L298.071871,92.9903702 L296.199803,92.7055589 L296.199803,92.5862069 C296.199803,92.5862069 295.791076,91.4347399 295.586712,90.8590064 C295.586712,90.8590064 292.571471,88.9121511 292.571471,88.9121511 C292.571471,88.9121511 296.199803,85.2380952 296.199803,85.2380952 Z" id="Path-3743" fill="#CCCCCC"></path>
            <path d="M305.609756,123.207792 L296.878049,127.082251 C296.878049,127.082251 288.146341,127.082251 288.146341,130.95671 L288.146341,138.705628 L288.146341,142.580087 C288.146341,142.580087 288.146341,142.580087 288.146341,146.454545 L288.146341,154.203463 L292.512195,158.077922 C292.512195,158.077922 292.512195,154.203463 296.878049,154.203463 L301.243902,154.203463 L305.609756,150.329004 L314.341463,150.329004 L318.707317,154.203463 L318.707317,158.077922 C318.707317,158.077922 318.707317,161.952381 323.073171,161.952381 C327.439024,161.952381 327.439024,158.077922 327.439024,158.077922 L331.804878,154.203463 L331.804878,146.454545 C331.804878,146.454545 327.439024,138.705628 327.439024,134.831169 C327.439024,130.95671 318.707317,123.207792 318.707317,123.207792 L314.341463,127.082251 L309.97561,119.333333 L305.609756,123.207792 Z" id="Path-3744" fill="#CCCCCC" opacity="0.800000012"></path>
            <path d="M318.707317,110.809524 C318.707317,110.809524 315.796748,115.544974 314.341463,116.492063 L319.761787,115.071429 L318.707317,119.333333 L323.073171,119.333333 L323.073171,116.492063 L318.707317,110.809524 Z" id="Path-3745" fill="#CCCCCC"></path>
            <path d="M350.855876,144.904762 L350.855876,146.318134 L350.855876,153.428571 C350.855876,153.428571 354.427938,157.690476 350.855876,157.690476 C347.283814,157.690476 350.855876,161.952381 350.855876,161.952381 C350.855876,161.952381 358,161.952381 358,157.690476 C358,153.428571 353.634146,149.166667 353.634146,149.166667 L350.855876,144.904762 Z" id="Path-3746" fill="#CCCCCC"></path>
        </g>
        <circle id="Oval-4" fill="#3D3E40" opacity="0.738169643" cx="242" cy="121" r="30"></circle>
        <circle id="Oval-4" fill="#6F7075" opacity="0.5" cx="275" cy="148" r="22"></circle>
        <circle id="Oval-4" fill="#6F7075" opacity="0.5" cx="282.5" cy="126.5" r="14.5"></circle>
        <circle id="Oval-4" fill="#6F7075" opacity="0.100000001" cx="113.5" cy="126.5" r="14.5"></circle>
        <circle id="Oval-4" fill="#6F7075" opacity="0.5" cx="113.5" cy="136.5" r="14.5"></circle>
        <circle id="Oval-4" fill="#6F7075" opacity="0.5" cx="99" cy="126" r="10"></circle>
        <circle id="Oval-4" fill="#6F7075" opacity="0.5" cx="212" cy="168" r="6"></circle>
        <circle id="Oval-4" fill="#6F7075" opacity="0.5" cx="323" cy="121" r="6"></circle>
    </g>
</svg>