<?xml version="1.0" encoding="UTF-8"?>
<svg width="400px" height="300px" viewBox="0 0 400 300" version="1.1" xmlns="http://www.w3.org/2000/svg" xmlns:xlink="http://www.w3.org/1999/xlink">
    <!-- Generator: Sketch 46.2 (44496) - http://www.bohemiancoding.com/sketch -->
    <title>img-radar</title>
    <desc>Created with Sketch.</desc>
    <defs></defs>
    <g id="12-默认图示" stroke="none" stroke-width="1" fill="none" fill-rule="evenodd">
        <g id="img-radar">
            <path d="M200,51.236068 L96.1755705,126.668931 L135.832974,248.721868 L264.167026,248.721868 L303.824429,126.668931 L200,51.236068 Z" id="Polygon" stroke="#D8D8D8" stroke-width="2" opacity="0.699999988"></path>
            <path d="M200.457884,108.233213 L156.169242,139.867957 L172.437736,192.28866 L227.562264,192.28866 L243.832957,139.86087 L200.457884,108.233213 Z" id="original_Polygon_92472284" stroke="#D8D8D8" stroke-width="2" opacity="0.200000003"></path>
            <path d="M200.66407,89.233213 L136.169242,135.300947 L159.860417,211.639175 L240.139583,211.639175 L263.832957,135.29386 L200.66407,89.233213 Z" id="original_Polygon_92472284" stroke="#D8D8D8" stroke-width="2" opacity="0.699999988"></path>
            <path d="M200.870255,70.233213 L116.169242,130.733937 L147.283097,230.989691 L252.716903,230.989691 L283.832957,130.72685 L200.870255,70.233213 Z" id="original_Polygon_92472284" stroke="#D8D8D8" stroke-width="2" opacity="0.200000003"></path>
            <polygon id="Rectangle-7" fill="#C2C2C5" transform="translate(197.257073, 176.257073) rotate(20.000000) translate(-197.257073, -176.257073) " points="144.156466 123.156466 250.35768 133.035649 197.257073 229.35768"></polygon>
        </g>
    </g>
</svg>