<?xml version="1.0" encoding="UTF-8" standalone="no"?>
<svg width="400px" height="300px" viewBox="0 0 400 300" version="1.1" xmlns="http://www.w3.org/2000/svg" xmlns:xlink="http://www.w3.org/1999/xlink">
    <!-- Generator: Sketch 42 (36781) - http://www.bohemiancoding.com/sketch -->
    <title>img-c3</title>
    <desc>Created with Sketch.</desc>
    <defs></defs>
    <g id="V3.0" stroke="none" stroke-width="1" fill="none" fill-rule="evenodd">
        <g id="img-c3" fill="#888888">
            <rect id="Rectangle-18" x="123" y="132" width="68" height="5" opacity="0.5"></rect>
            <rect id="Rectangle-18" x="37" y="132" width="68" height="5" opacity="0.5"></rect>
            <rect id="Rectangle-18" x="123" y="160" width="68" height="5" opacity="0.5"></rect>
            <rect id="Rectangle-18" x="37" y="160" width="68" height="5" opacity="0.5"></rect>
            <rect id="Rectangle-18" x="123" y="188" width="68" height="5" opacity="0.5"></rect>
            <rect id="Rectangle-18" x="37" y="188" width="68" height="5" opacity="0.5"></rect>
            <rect id="Rectangle-18" x="123" y="216" width="68" height="5" opacity="0.5"></rect>
            <rect id="Rectangle-18" x="37" y="216" width="68" height="5" opacity="0.5"></rect>
            <rect id="Rectangle-18" x="123" y="244" width="68" height="5" opacity="0.5"></rect>
            <rect id="Rectangle-18" x="37" y="244" width="68" height="5" opacity="0.5"></rect>
            <rect id="Rectangle-18" x="208" y="132" width="68" height="5" opacity="0.5"></rect>
            <rect id="Rectangle-18" x="295" y="132" width="68" height="5" opacity="0.5"></rect>
            <rect id="Rectangle-18" x="208" y="160" width="68" height="5" opacity="0.5"></rect>
            <rect id="Rectangle-18" x="295" y="160" width="68" height="5" opacity="0.5"></rect>
            <rect id="Rectangle-18" x="208" y="188" width="68" height="5" opacity="0.5"></rect>
            <rect id="Rectangle-18" x="295" y="188" width="68" height="5" opacity="0.5"></rect>
            <rect id="Rectangle-18" x="208" y="216" width="68" height="5" opacity="0.5"></rect>
            <rect id="Rectangle-18" x="295" y="216" width="68" height="5" opacity="0.5"></rect>
            <rect id="Rectangle-18" x="208" y="244" width="68" height="5" opacity="0.5"></rect>
            <rect id="Rectangle-18" x="295" y="244" width="68" height="5" opacity="0.5"></rect>
            <polygon id="Rectangle-6" points="37 92 37 44 363 44 363 92" opacity="0.5"></polygon>
        </g>
    </g>
</svg>