<?xml version="1.0" encoding="utf-8"?>
<!-- Generator: Adobe Illustrator 22.0.0, SVG Export Plug-In . SVG Version: 6.00 Build 0)  -->
<svg version="1.1" id="图层_1" xmlns="http://www.w3.org/2000/svg" xmlns:xlink="http://www.w3.org/1999/xlink" x="0px" y="0px"
	 viewBox="0 0 150 37.4" style="enable-background:new 0 0 150 37.4;" xml:space="preserve">
<style type="text/css">
	.st0{fill-rule:evenodd;clip-rule:evenodd;fill:#FFF;}
</style>
<title></title>
<g id="icomoon-ignore">
</g>
<g>
	<path class="st0" d="M25.1,14.6c1.4,1.4,1.4,4-0.2,5.8c0.1,0,0.1-0.1,0.2-0.1c2.4-2.2,2.1-5,0.7-6.4l-5.5-5.5L16,4l-0.7,0.7l5,5
		L25.1,14.6z"/>
	<path class="st0" d="M29.2,10.5c1.8,1.9,1.8,4.3,0.7,6.6c1.9-2.1,2.4-4.7-0.1-7.2l-9.5-9.5L20,0l-0.6,0.7l0.9,0.9L29.2,10.5z"/>
	<path class="st0" d="M20.3,15.1c-1.1,0.3-2,1.2-2.3,2.4c-0.5,1.8,0.5,3.7,2.3,4.2c0,0,0.1,0,0.1,0c1.8,0.5,3.7-0.6,4.3-2.4
		c0.5-1.8-0.6-3.7-2.5-4.3C21.6,14.9,20.9,14.9,20.3,15.1z"/>
	<path class="st0" d="M27.2,12.5c1.7,1.7,1.6,4.4,0.3,6.5c0.1,0,0.1-0.1,0.2-0.1c2.1-2.3,2.1-5.1,0.2-7l-7.5-7.5L18,2.1l-0.7,0.6
		l3,3L27.2,12.5z"/>
	<path class="st0" d="M15.5,24.3c-1.7-1.7-1.6-4.4-0.4-6.5c0,0.1-0.1,0.1-0.2,0.1c-2.1,2.3-2.1,5.1-0.2,7l5.5,5.5l4.3,4.3l0.7-0.7
		l-5-5L15.5,24.3z"/>
	<path class="st0" d="M12.3,18.5c1.9-1.8,5.3-3.3,7.9-3.8c0.1,0,0.2,0,0.2-0.1c0.1,0,0.2,0,0.3,0c0.5-0.1,0.9,0,1.4,0.1
		c0.2,0.1,0.4,0.1,0.5,0.2l-2.4-2.4l-6.3-6.3L1.6,18.4l9.1,9.1C8,23.9,10.1,20.7,12.3,18.5z"/>
	<path class="st0" d="M30.2,18.3c-2,1.8-5.4,3.4-8.2,3.9c-0.1,0-0.2,0-0.2,0c-0.5,0.1-1,0-1.4-0.1c0,0-0.1,0-0.1,0
		c-0.1,0-0.2-0.1-0.3-0.1c0,0-0.1,0-0.1,0l0.4,0.4l8.4,8.4L41,18.4l-9.1-9.1C34.6,12.9,32.5,16.1,30.2,18.3z"/>
	<path class="st0" d="M17.4,22.3c-1.4-1.4-1.4-4,0.2-5.8c0,0-0.1,0-0.2,0.1c-2.3,2.2-2.1,5-0.7,6.4l3.5,3.5l6.4,6.4l0.6-0.7l-7-7
		L17.4,22.3z"/>
	<path class="st0" d="M13.4,26.3c-1.9-1.9-1.8-4.3-0.7-6.5c-1.9,2.1-2.4,4.7,0.1,7.2l7.5,7.5l2.3,2.3l0.7-0.7l-3-3L13.4,26.3z"/>
	<path class="st0" d="M61.7,32.8c0,0.7-0.1,1.2-0.2,1.4c-0.2,0.2-0.5,0.3-0.9,0.3h-0.2v0.9c0.1,0,0.2,0,0.3,0H61
		c0.9,0,1.6-0.2,2-0.5c0.4-0.4,0.6-0.9,0.6-1.8v-4.6h-2V32.8z"/>
	<rect x="65.3" y="28.5" class="st0" width="1.9" height="6.9"/>
	<polygon class="st0" points="73.3,32 71,28.5 68.9,28.5 68.9,35.4 69.9,35.4 69.9,30.3 73.2,35.4 74.3,35.4 74.3,28.5 73.3,28.5 	
		"/>
	<polygon class="st0" points="78.5,29.4 80.3,29.4 80.3,35.4 82.3,35.4 82.3,29.4 84.1,29.4 84.1,28.5 78.5,28.5 	"/>
	<rect x="57.6" y="28.5" class="st0" width="1.9" height="6.9"/>
	<polygon class="st0" points="50.8,28.5 50.8,29.4 54,29.4 50.7,35.4 56.4,35.4 56.4,34.4 53.3,34.4 56.6,28.5 	"/>
	<path class="st0" d="M118.6,29.3c-0.3-0.3-0.7-0.5-1.1-0.6c-0.4-0.2-0.9-0.2-1.4-0.2c-0.5,0-0.9,0.1-1.4,0.2
		c-0.4,0.2-0.8,0.4-1.1,0.6c-0.4,0.3-0.7,0.8-0.8,1.2c-0.2,0.5-0.3,1-0.3,1.5c0,0.5,0.1,1,0.3,1.5c0.2,0.5,0.5,0.8,0.9,1.2
		c0.3,0.3,0.7,0.5,1.1,0.7c0.5,0.2,0.9,0.2,1.4,0.2c0.5,0,1-0.1,1.4-0.2c0.4-0.2,0.8-0.4,1.1-0.7c0.4-0.4,0.7-0.7,0.9-1.2
		c0.2-0.5,0.3-0.9,0.3-1.5c0-0.5-0.1-1.1-0.3-1.5C119.3,30,119,29.6,118.6,29.3z M117.3,34c-0.3,0.5-0.7,0.7-1.2,0.7
		c-0.5,0-0.8-0.2-1.1-0.7c-0.3-0.5-0.4-1.2-0.4-2.1c0-0.8,0.1-1.5,0.4-2c0.3-0.5,0.7-0.7,1.1-0.7c0.5,0,0.9,0.2,1.2,0.7
		c0.3,0.5,0.4,1.1,0.4,2C117.7,32.8,117.6,33.5,117.3,34z"/>
	<polygon class="st0" points="86.9,32.4 89.2,32.4 89.2,31.4 86.9,31.4 86.9,29.4 89.3,29.4 89.3,28.5 85,28.5 85,35.4 89.4,35.4 
		89.4,34.4 86.9,34.4 	"/>
	<polygon class="st0" points="102.3,31.5 100.2,31.5 100.2,28.5 98.3,28.5 98.3,35.4 100.2,35.4 100.2,32.4 102.3,32.4 102.3,35.4 
		104.2,35.4 104.2,28.5 102.3,28.5 	"/>
	<polygon class="st0" points="110.3,32 108,28.5 105.9,28.5 105.9,35.4 106.9,35.4 106.9,30.3 110.2,35.4 111.3,35.4 111.3,28.5 
		110.3,28.5 	"/>
	<path class="st0" d="M131.8,29.3c-0.3-0.3-0.7-0.5-1.1-0.6c-0.4-0.2-0.9-0.2-1.4-0.2c-0.5,0-0.9,0.1-1.4,0.2
		c-0.4,0.2-0.8,0.4-1.1,0.6c-0.4,0.3-0.6,0.8-0.8,1.2c-0.2,0.5-0.3,1-0.3,1.5c0,0.5,0.1,1,0.3,1.5c0.2,0.5,0.5,0.8,0.8,1.2
		c0.3,0.3,0.7,0.5,1.1,0.7c0.5,0.2,0.9,0.2,1.4,0.2c0.5,0,0.9-0.1,1.4-0.2c0.5-0.2,0.8-0.4,1.1-0.7c0.4-0.4,0.7-0.7,0.9-1.2
		c0.2-0.5,0.3-0.9,0.3-1.5c0-0.5-0.1-1.1-0.3-1.5C132.5,30,132.2,29.6,131.8,29.3z M130.5,34c-0.3,0.5-0.7,0.7-1.2,0.7
		c-0.5,0-0.8-0.2-1.1-0.7c-0.3-0.5-0.4-1.2-0.4-2.1c0-0.8,0.1-1.5,0.4-2c0.3-0.5,0.7-0.7,1.2-0.7c0.5,0,0.9,0.2,1.1,0.7
		c0.3,0.5,0.4,1.1,0.4,2C130.9,32.8,130.8,33.5,130.5,34z"/>
	<polygon class="st0" points="144.2,31.2 142.9,28.5 140.7,28.5 140.8,28.6 142.7,32.1 142.7,35.4 144.7,35.4 144.7,32 146.6,28.5 
		145.6,28.5 	"/>
	<path class="st0" d="M138.9,32.3v1.9c-0.2,0.1-0.4,0.2-0.5,0.3c-0.2,0.1-0.4,0.1-0.6,0.1c-0.6,0-1.1-0.2-1.4-0.7
		c-0.4-0.5-0.6-1.1-0.6-2c0-0.8,0.2-1.5,0.5-2c0.3-0.5,0.8-0.8,1.4-0.8c0.4,0,0.8,0.1,1,0.3c0.3,0.2,0.6,0.6,0.8,1l0.9-0.6
		c-0.4-0.5-0.7-0.9-1.2-1.2c-0.5-0.2-1-0.4-1.7-0.4c-0.5,0-0.9,0.1-1.4,0.2c-0.4,0.2-0.8,0.4-1.1,0.6c-0.4,0.3-0.7,0.8-0.9,1.2
		c-0.2,0.5-0.3,1-0.3,1.5c0,0.6,0.1,1.1,0.3,1.6c0.2,0.5,0.5,0.9,1,1.2c0.3,0.3,0.7,0.5,1.1,0.6c0.4,0.2,0.9,0.2,1.3,0.2
		c0.7,0,1.2-0.1,1.8-0.3c0.5-0.2,1.1-0.5,1.5-0.9l0.1,0l-0.1-2H138.9z"/>
	<polygon class="st0" points="122.9,28.5 121,28.5 121,35.4 125.4,35.4 125.4,34.4 122.9,34.4 	"/>
	<path class="st0" d="M95.5,34.3c-0.3,0.2-0.7,0.3-1,0.3c-0.6,0-1.1-0.2-1.5-0.7c-0.4-0.5-0.6-1.1-0.6-2c0-0.8,0.2-1.5,0.5-2
		c0.3-0.5,0.8-0.8,1.4-0.8c0.4,0,0.7,0.1,1,0.3c0.3,0.2,0.5,0.6,0.8,1l0.9-0.6c-0.4-0.5-0.8-0.9-1.2-1.2c-0.5-0.2-1.1-0.4-1.7-0.4
		c-1.1,0-2,0.4-2.7,1c-0.7,0.7-1.1,1.6-1.1,2.6c0,0.6,0.1,1.1,0.3,1.5c0.2,0.5,0.5,0.8,1,1.2c0.3,0.3,0.7,0.5,1.1,0.6
		c0.4,0.2,0.8,0.2,1.3,0.2c0.7,0,1.4-0.2,1.9-0.5c0.5-0.3,1-0.8,1.2-1.4l-0.8-0.5C96.1,33.7,95.9,34,95.5,34.3z"/>
	<polygon class="st0" points="93.1,22.6 96.2,22.6 96.2,20.3 93.1,20.3 88.3,20.3 88.3,14.3 93.1,14.3 96.2,14.3 96.2,12 93.1,12 
		88.3,12 88.3,9.6 93.1,9.6 96.2,9.6 96.2,7.3 93.1,7.3 79.6,7.3 76.4,7.3 76.4,9.6 79.6,9.6 84.3,9.6 84.3,12 79.6,12 76.4,12 
		76.4,14.3 79.6,14.3 84.3,14.3 84.3,20.3 79.6,20.3 76.4,20.3 76.4,22.6 79.6,22.6 	"/>
	<polygon class="st0" points="93,15.1 89.9,19.6 93.1,19.6 93.3,19.6 96.3,15.1 93.1,15.1 	"/>
	<polygon class="st0" points="79.6,19.6 82.7,19.6 79.7,15.1 79.6,15.1 76.3,15.1 79.4,19.6 	"/>
	<polygon class="st0" points="93,1.2 92.3,1.2 88.6,1.2 84.2,1.2 81.1,1.2 79.8,1.2 79.6,1.5 75.6,6.5 79.6,6.5 79.9,6.5 82.3,3.5 
		90.4,3.5 92.9,6.5 93.1,6.5 97.3,6.5 93.1,1.3 	"/>
	<polygon class="st0" points="69.5,5.9 72.6,1.4 69.4,1.4 69.3,1.4 66.1,5.9 69.4,5.9 	"/>
	<path class="st0" d="M66.2,10h3.2h3.5V7.7h-3.5h-2.1c-1.3,0-1.4-0.6-1.4-1.2V1h-3.2v5.6C62.7,8.7,62.9,10,66.2,10z"/>
	<polygon class="st0" points="69.4,18 66.1,18 69.2,22.6 69.4,22.6 72.8,22.6 69.8,18 	"/>
	<path class="st0" d="M61.9,8.8V6.4c-0.8,0.2-1.7,0.4-2.7,0.6v-2h2.7V2.6h-2.7V1h-3.2v6.3l-1.4,0.2V2.2h-0.3h-2.9v5.4
		c-0.3,0-0.6,0-0.9,0v2.4l3.8-0.3C57.1,9.6,59.8,9.3,61.9,8.8z"/>
	<path class="st0" d="M63.5,22.9V17c1.8-0.2,3-0.5,4.2-1.4l1.3,1.4h0.4h3.4l-3.4-3.8l-1.8-2.1h-3.8l2.5,2.8
		c-1.9,0.9-3.8,0.9-8.4,0.8l3.1-2.4h-3.3l2.4-1.9h-3.8l-1.8,1.4L52,13.8h2.4h0.9l-0.9,0.7l-3.2,2.5h3.2h0.5h5v5.8H63.5z"/>
	<polygon class="st0" points="53.9,18 50.8,22.6 54.5,22.6 57.6,18 54.4,18 	"/>
	<rect x="141.2" y="1.5" class="st0" width="5.2" height="2.5"/>
	<polygon class="st0" points="137.7,21.1 138.9,21.1 139.7,21.1 139.7,8.2 138.9,8.2 137.7,8.2 	"/>
	<polygon class="st0" points="137.2,23.3 137.2,6.7 138.8,6.7 140.3,6.7 140.3,4.3 139.7,4.3 139.7,2.8 137.8,2.8 137.8,4.3 
		137.2,4.3 137.2,1 133.4,1 133.4,4.3 130.5,4.3 130.5,6.7 133.4,6.7 133.4,23.3 	"/>
	<path class="st0" d="M140.9,6.2v2.5h1.3v11.2c0,0.4-0.5,0.9-1,0.9h-0.7v2.4h3c1,0,2.2-1.5,2.2-3v-0.4V8.7h0.9V6.2H140.9z"/>
	<polygon class="st0" points="132.7,21.1 132.7,8.2 131.9,8.2 130.8,8.2 130.8,21.1 131.9,21.1 	"/>
	<polygon class="st0" points="125.8,11.2 125.8,23.3 129.3,23.3 129.3,9.9 128.2,9.9 129.8,5.5 128.1,5.5 129.8,1 126.5,1 
		124.4,6.7 126,6.7 124.4,11.2 	"/>
	<path class="st0" d="M105.9,13.1l1.5-0.6V9.7l-1.5,0.5V5.5h1.5V3h-1.5V1h-3.8V3h-2.4v2.5h2.4v6.1l-2.4,0.8v2.8l2.4-0.9v5.5
		c0,0.3-0.4,1-0.9,1h-0.9v2.4h3.4c1,0,2.2-1.5,2.2-3V13.1z"/>
	<polygon class="st0" points="118,23.3 122.1,23.3 116.7,16.8 121.7,10.7 121.7,8.3 117,8.3 117,5.5 122.1,5.5 122.1,3 117,3 117,1 
		113.2,1 113.2,3 108.3,3 108.3,5.5 113.2,5.5 113.2,8.3 108.5,8.3 108.5,10.6 117.9,10.6 114.7,14.5 112.8,12.2 108.9,12.2 
		112.7,16.9 107.4,23.3 111.4,23.3 114.7,19.2 	"/>
</g>
</svg>
